<svg width="276" height="75" viewBox="0 0 276 75" fill="none" xmlns="http://www.w3.org/2000/svg">
<rect width="276" height="75" fill="#FFFFFC"/>
<g filter="url(#filter0_d_0_1)">
<path d="M10.3182 61L5.13636 14.4545H12.5227L15.6136 50.5H16.0455L31.4545 14.4545H38.7727L42.2273 50.5227H42.6818L57.6818 14.4545H65.0909L44.4318 61H37.3636L33.3864 26.1364H33.0227L17.4091 61H10.3182ZM69.8523 61.7727C67.6402 61.7727 65.7083 61.3636 64.0568 60.5455C62.4053 59.7121 61.1856 58.5076 60.3977 56.9318C59.6098 55.3561 59.4053 53.4242 59.7841 51.1364C60.1174 49.1667 60.7689 47.5455 61.7386 46.2727C62.7235 45 63.9205 43.9924 65.3295 43.25C66.7386 42.4924 68.2689 41.9242 69.9205 41.5455C71.572 41.1667 73.2386 40.8864 74.9205 40.7045C77.0417 40.4621 78.7614 40.2576 80.0795 40.0909C81.4129 39.9242 82.4129 39.6667 83.0795 39.3182C83.7462 38.9545 84.1477 38.3636 84.2841 37.5455V37.3864C84.6023 35.4167 84.3144 33.8864 83.4205 32.7955C82.5417 31.6894 81.0114 31.1364 78.8295 31.1364C76.5568 31.1364 74.6477 31.6364 73.1023 32.6364C71.572 33.6364 70.4432 34.7576 69.7159 36L63.625 34.5455C64.7159 32.4242 66.1023 30.7121 67.7841 29.4091C69.4811 28.0909 71.3371 27.1364 73.3523 26.5455C75.3674 25.9394 77.428 25.6364 79.5341 25.6364C80.928 25.6364 82.375 25.803 83.875 26.1364C85.375 26.4545 86.7386 27.0455 87.9659 27.9091C89.2083 28.7727 90.1326 30.0076 90.7386 31.6136C91.3447 33.2045 91.4356 35.2727 91.0114 37.8182L87.1705 61H80.5341L81.3523 56.2273H81.0795C80.5038 57.1061 79.7008 57.9697 78.6705 58.8182C77.6553 59.6667 76.4129 60.3712 74.9432 60.9318C73.4735 61.4924 71.7765 61.7727 69.8523 61.7727ZM72.1705 56.3182C74.0644 56.3182 75.7386 55.947 77.1932 55.2045C78.6629 54.4621 79.8523 53.4924 80.7614 52.2955C81.6705 51.0833 82.2386 49.7879 82.4659 48.4091L83.2159 43.9091C82.928 44.1515 82.4205 44.3712 81.6932 44.5682C80.9811 44.7652 80.178 44.9394 79.2841 45.0909C78.3902 45.2424 77.5114 45.3712 76.6477 45.4773C75.7992 45.5833 75.0947 45.6818 74.5341 45.7727C73.2008 45.9394 71.9508 46.2197 70.7841 46.6136C69.6326 47.0076 68.6705 47.5758 67.8977 48.3182C67.125 49.0455 66.6402 50.0152 66.4432 51.2273C66.1705 52.9091 66.572 54.1818 67.6477 55.0455C68.7386 55.8939 70.2462 56.3182 72.1705 56.3182ZM96.2216 61L102.04 26.0909H108.608L107.676 31.6364H108.04C108.979 29.7576 110.35 28.2803 112.153 27.2045C113.956 26.1136 115.881 25.5682 117.926 25.5682C118.366 25.5682 118.866 25.5833 119.426 25.6136C119.987 25.6288 120.441 25.6667 120.79 25.7273L119.699 32.2273C119.441 32.1515 118.972 32.0682 118.29 31.9773C117.608 31.8712 116.903 31.8182 116.176 31.8182C114.585 31.8182 113.108 32.1591 111.744 32.8409C110.381 33.5076 109.237 34.4394 108.312 35.6364C107.388 36.8182 106.79 38.1667 106.517 39.6818L103.017 61H96.2216ZM120.909 61L126.727 26.0909H133.295L132.364 31.6364H132.727C133.667 29.7576 135.038 28.2803 136.841 27.2045C138.644 26.1136 140.568 25.5682 142.614 25.5682C143.053 25.5682 143.553 25.5833 144.114 25.6136C144.674 25.6288 145.129 25.6667 145.477 25.7273L144.386 32.2273C144.129 32.1515 143.659 32.0682 142.977 31.9773C142.295 31.8712 141.591 31.8182 140.864 31.8182C139.273 31.8182 137.795 32.1591 136.432 32.8409C135.068 33.5076 133.924 34.4394 133 35.6364C132.076 36.8182 131.477 38.1667 131.205 39.6818L127.705 61H120.909ZM145.597 61L151.415 26.0909H158.21L152.392 61H145.597ZM156.233 20.6364C155.051 20.6364 154.051 20.2424 153.233 19.4545C152.43 18.6515 152.059 17.697 152.119 16.5909C152.18 15.4697 152.65 14.5151 153.528 13.7273C154.407 12.9242 155.43 12.5227 156.597 12.5227C157.778 12.5227 158.771 12.9242 159.574 13.7273C160.377 14.5151 160.756 15.4697 160.71 16.5909C160.65 17.697 160.18 18.6515 159.301 19.4545C158.438 20.2424 157.415 20.6364 156.233 20.6364ZM246.222 61L252.04 26.0909H258.608L257.676 31.6364H258.04C258.979 29.7576 260.35 28.2803 262.153 27.2045C263.956 26.1136 265.881 25.5682 267.926 25.5682C268.366 25.5682 268.866 25.5833 269.426 25.6136C269.987 25.6288 270.441 25.6667 270.79 25.7273L269.699 32.2273C269.441 32.1515 268.972 32.0682 268.29 31.9773C267.608 31.8712 266.903 31.8182 266.176 31.8182C264.585 31.8182 263.108 32.1591 261.744 32.8409C260.381 33.5076 259.237 34.4394 258.312 35.6364C257.388 36.8182 256.79 38.1667 256.517 39.6818L253.017 61H246.222Z" fill="#47126B"/>
<path d="M10.3182 61L9.82125 61.0553L9.87076 61.5H10.3182V61ZM5.13636 14.4545V13.9545H4.57761L4.63943 14.5099L5.13636 14.4545ZM12.5227 14.4545L13.0209 14.4118L12.9817 13.9545H12.5227V14.4545ZM15.6136 50.5L15.1155 50.5427L15.1547 51H15.6136V50.5ZM16.0455 50.5V51H16.3755L16.5052 50.6965L16.0455 50.5ZM31.4545 14.4545V13.9545H31.1245L30.9948 14.258L31.4545 14.4545ZM38.7727 14.4545L39.2705 14.4069L39.2271 13.9545H38.7727V14.4545ZM42.2273 50.5227L41.7296 50.5704L41.7729 51.0227H42.2273V50.5227ZM42.6818 50.5227V51.0227H43.0154L43.1435 50.7147L42.6818 50.5227ZM57.6818 14.4545V13.9545H57.3482L57.2202 14.2625L57.6818 14.4545ZM65.0909 14.4545L65.5479 14.6574L65.8599 13.9545H65.0909V14.4545ZM44.4318 61V61.5H44.7569L44.8888 61.2028L44.4318 61ZM37.3636 61L36.8669 61.0567L36.9174 61.5H37.3636V61ZM33.3864 26.1364L33.8831 26.0797L33.8326 25.6364H33.3864V26.1364ZM33.0227 26.1364V25.6364H32.6988L32.5664 25.932L33.0227 26.1364ZM17.4091 61V61.5H17.733L17.8654 61.2044L17.4091 61ZM10.8151 60.9447L5.63329 14.3992L4.63943 14.5099L9.82125 61.0553L10.8151 60.9447ZM5.13636 14.9545H12.5227V13.9545H5.13636V14.9545ZM12.0246 14.4973L15.1155 50.5427L16.1118 50.4573L13.0209 14.4118L12.0246 14.4973ZM15.6136 51H16.0455V50H15.6136V51ZM16.5052 50.6965L31.9143 14.6511L30.9948 14.258L15.5857 50.3035L16.5052 50.6965ZM31.4545 14.9545H38.7727V13.9545H31.4545V14.9545ZM38.275 14.5022L41.7296 50.5704L42.725 50.4751L39.2705 14.4069L38.275 14.5022ZM42.2273 51.0227H42.6818V50.0227H42.2273V51.0227ZM43.1435 50.7147L58.1435 14.6465L57.2202 14.2625L42.2202 50.3307L43.1435 50.7147ZM57.6818 14.9545H65.0909V13.9545H57.6818V14.9545ZM64.6339 14.2517L43.9748 60.7972L44.8888 61.2028L65.5479 14.6574L64.6339 14.2517ZM44.4318 60.5H37.3636V61.5H44.4318V60.5ZM37.8604 60.9433L33.8831 26.0797L32.8896 26.193L36.8669 61.0567L37.8604 60.9433ZM33.3864 25.6364H33.0227V26.6364H33.3864V25.6364ZM32.5664 25.932L16.9528 60.7956L17.8654 61.2044L33.4791 26.3407L32.5664 25.932ZM17.4091 60.5H10.3182V61.5H17.4091V60.5ZM64.0568 60.5455L63.8316 60.9919L63.8349 60.9935L64.0568 60.5455ZM60.3977 56.9318L59.9505 57.1554L59.9505 57.1554L60.3977 56.9318ZM59.7841 51.1364L59.2911 51.0529L59.2908 51.0547L59.7841 51.1364ZM61.7386 46.2727L61.3432 45.9667L61.3409 45.9697L61.7386 46.2727ZM65.3295 43.25L65.5626 43.6924L65.5663 43.6904L65.3295 43.25ZM74.9205 40.7045L74.9742 41.2017L74.9772 41.2013L74.9205 40.7045ZM80.0795 40.0909L80.0175 39.5948L80.0168 39.5949L80.0795 40.0909ZM83.0795 39.3182L83.3112 39.7614L83.319 39.7571L83.0795 39.3182ZM84.2841 37.5455L84.7773 37.6277L84.7841 37.5868V37.5455H84.2841ZM84.2841 37.3864L83.7905 37.3066L83.7841 37.3462V37.3864H84.2841ZM83.4205 32.7955L83.0289 33.1065L83.0337 33.1124L83.4205 32.7955ZM73.1023 32.6364L72.8306 32.2166L72.8288 32.2178L73.1023 32.6364ZM69.7159 36L69.5998 36.4863L69.9602 36.5724L70.1474 36.2526L69.7159 36ZM63.625 34.5455L63.1804 34.3168L62.8888 34.8837L63.5089 35.0318L63.625 34.5455ZM67.7841 29.4091L68.0903 29.8043L68.0908 29.804L67.7841 29.4091ZM73.3523 26.5455L73.493 27.0253L73.4963 27.0243L73.3523 26.5455ZM83.875 26.1364L83.7665 26.6245L83.7712 26.6255L83.875 26.1364ZM87.9659 27.9091L87.6782 28.318L87.6805 28.3196L87.9659 27.9091ZM90.7386 31.6136L90.2708 31.7902L90.2714 31.7916L90.7386 31.6136ZM91.0114 37.8182L90.5182 37.736L90.5181 37.7365L91.0114 37.8182ZM87.1705 61V61.5H87.5944L87.6637 61.0817L87.1705 61ZM80.5341 61L80.0413 60.9155L79.9411 61.5H80.5341V61ZM81.3523 56.2273L81.8451 56.3118L81.9453 55.7273H81.3523V56.2273ZM81.0795 56.2273V55.7273H80.8094L80.6613 55.9533L81.0795 56.2273ZM78.6705 58.8182L78.3526 58.4322L78.3498 58.4345L78.6705 58.8182ZM74.9432 60.9318L74.765 60.4647L74.765 60.4647L74.9432 60.9318ZM77.1932 55.2045L76.9677 54.7583L76.9659 54.7592L77.1932 55.2045ZM80.7614 52.2955L81.1595 52.5979L81.1614 52.5955L80.7614 52.2955ZM82.4659 48.4091L81.9727 48.3269L81.9726 48.3278L82.4659 48.4091ZM83.2159 43.9091L83.7091 43.9913L83.9323 42.6521L82.8938 43.5266L83.2159 43.9091ZM81.6932 44.5682L81.5625 44.0856L81.5599 44.0863L81.6932 44.5682ZM79.2841 45.0909L79.3676 45.5839L79.3676 45.5839L79.2841 45.0909ZM76.6477 45.4773L76.5868 44.981L76.5857 44.9811L76.6477 45.4773ZM74.5341 45.7727L74.5961 46.2689L74.6051 46.2677L74.6141 46.2663L74.5341 45.7727ZM70.7841 46.6136L70.6241 46.1399L70.6222 46.1406L70.7841 46.6136ZM67.8977 48.3182L68.2404 48.6823L68.2441 48.6787L67.8977 48.3182ZM66.4432 51.2273L65.9497 51.1471L65.9496 51.1472L66.4432 51.2273ZM67.6477 55.0455L67.3347 55.4354L67.3408 55.4401L67.6477 55.0455ZM69.8523 61.2727C67.7019 61.2727 65.8488 60.8752 64.2788 60.0974L63.8349 60.9935C65.5678 61.852 67.5784 62.2727 69.8523 62.2727V61.2727ZM64.2821 60.0991C62.7214 59.3116 61.5822 58.1828 60.8449 56.7082L59.9505 57.1554C60.789 58.8324 62.0892 60.1126 63.8316 60.9918L64.2821 60.0991ZM60.8449 56.7082C60.1172 55.2527 59.9104 53.4346 60.2774 51.218L59.2908 51.0547C58.9002 53.4139 59.1025 55.4594 59.9505 57.1554L60.8449 56.7082ZM60.2771 51.2198C60.6002 49.3105 61.2264 47.77 62.1364 46.5757L61.3409 45.9697C60.3114 47.3209 59.6347 49.0229 59.2911 51.0529L60.2771 51.2198ZM62.1341 46.5787C63.0756 45.3619 64.2174 44.4011 65.5626 43.6924L65.0965 42.8076C63.6235 43.5837 62.3713 44.6381 61.3432 45.9667L62.1341 46.5787ZM65.5663 43.6904C66.9338 42.9552 68.4217 42.4022 70.0322 42.0328L69.8087 41.0581C68.1162 41.4463 66.5435 42.0297 65.0928 42.8096L65.5663 43.6904ZM70.0322 42.0328C71.6646 41.6584 73.3119 41.3814 74.9742 41.2016L74.8667 40.2074C73.1653 40.3914 71.4793 40.6749 69.8087 41.0581L70.0322 42.0328ZM74.9772 41.2013C77.0994 40.9588 78.8213 40.754 80.1423 40.587L80.0168 39.5949C78.7014 39.7612 76.9839 39.9655 74.8637 40.2078L74.9772 41.2013ZM80.1416 40.587C81.4951 40.4179 82.5653 40.1512 83.3112 39.7613L82.8479 38.8751C82.2604 39.1822 81.3306 39.4306 80.0175 39.5948L80.1416 40.587ZM83.319 39.7571C84.1342 39.3124 84.6183 38.5814 84.7773 37.6277L83.7909 37.4633C83.6771 38.1459 83.3582 38.5966 82.8401 38.8792L83.319 39.7571ZM84.7841 37.5455V37.3864H83.7841V37.5455H84.7841ZM84.7777 37.4661C85.109 35.4154 84.8246 33.7201 83.8072 32.4785L83.0337 33.1124C83.8042 34.0526 84.0956 35.4179 83.7905 37.3066L84.7777 37.4661ZM83.8119 32.4844C82.796 31.2058 81.0797 30.6364 78.8295 30.6364V31.6364C80.9431 31.6364 82.2873 32.173 83.029 33.1065L83.8119 32.4844ZM78.8295 30.6364C76.4831 30.6364 74.4742 31.1531 72.8306 32.2166L73.3739 33.0561C74.8213 32.1196 76.6305 31.6364 78.8295 31.6364V30.6364ZM72.8288 32.2178C71.2506 33.249 70.0599 34.4226 69.2844 35.7474L70.1474 36.2526C70.8265 35.0925 71.8933 34.0237 73.3758 33.0549L72.8288 32.2178ZM69.832 35.5137L63.7411 34.0591L63.5089 35.0318L69.5998 36.4863L69.832 35.5137ZM64.0696 34.7741C65.1312 32.71 66.4729 31.0575 68.0903 29.8043L67.4779 29.0138C65.7316 30.3668 64.3006 32.1385 63.1804 34.3168L64.0696 34.7741ZM68.0908 29.804C69.7394 28.5233 71.5394 27.5981 73.493 27.0252L73.2116 26.0657C71.1348 26.6746 69.2227 27.6585 67.4774 29.0142L68.0908 29.804ZM73.4963 27.0243C75.4647 26.4323 77.4768 26.1364 79.5341 26.1364V25.1364C77.3793 25.1364 75.2702 25.4465 73.2083 26.0666L73.4963 27.0243ZM79.5341 26.1364C80.8881 26.1364 82.2986 26.2982 83.7665 26.6245L83.9835 25.6483C82.4514 25.3078 80.968 25.1364 79.5341 25.1364V26.1364ZM83.7712 26.6255C85.2066 26.9299 86.5074 27.4941 87.6782 28.318L88.2537 27.5002C86.9699 26.5968 85.5434 25.9791 83.9788 25.6472L83.7712 26.6255ZM87.6805 28.3196C88.829 29.118 89.6955 30.2656 90.2708 31.7902L91.2064 31.4371C90.5696 29.7496 89.5877 28.4275 88.2513 27.4985L87.6805 28.3196ZM90.2714 31.7916C90.8336 33.2675 90.9348 35.2364 90.5182 37.736L91.5046 37.9004C91.9364 35.3091 91.8558 33.1416 91.2059 31.4356L90.2714 31.7916ZM90.5181 37.7365L86.6772 60.9183L87.6637 61.0817L91.5046 37.8999L90.5181 37.7365ZM87.1705 60.5H80.5341V61.5H87.1705V60.5ZM81.0269 61.0845L81.8451 56.3118L80.8595 56.1428L80.0413 60.9155L81.0269 61.0845ZM81.3523 55.7273H81.0795V56.7273H81.3523V55.7273ZM80.6613 55.9533C80.1195 56.7803 79.354 57.6075 78.3526 58.4322L78.9883 59.2041C80.0475 58.3318 80.8881 57.4318 81.4978 56.5013L80.6613 55.9533ZM78.3498 58.4345C77.3843 59.2415 76.1924 59.9202 74.765 60.4647L75.1214 61.399C76.6333 60.8223 77.9263 60.0918 78.9911 59.2018L78.3498 58.4345ZM74.765 60.4647C73.3633 60.9993 71.7288 61.2727 69.8523 61.2727V62.2727C71.8242 62.2727 73.5836 61.9855 75.1214 61.399L74.765 60.4647ZM72.1705 56.8182C74.1308 56.8182 75.8851 56.4336 77.4205 55.6499L76.9659 54.7592C75.5922 55.4604 73.998 55.8182 72.1705 55.8182V56.8182ZM77.4186 55.6508C78.9495 54.8775 80.2003 53.8609 81.1595 52.5979L80.3632 51.993C79.5043 53.124 78.3762 54.0467 76.9677 54.7583L77.4186 55.6508ZM81.1614 52.5955C82.1145 51.3245 82.7178 49.9551 82.9593 48.4904L81.9726 48.3278C81.7595 49.6207 81.2264 50.8421 80.3614 51.9955L81.1614 52.5955ZM82.9591 48.4913L83.7091 43.9913L82.7227 43.8269L81.9727 48.3269L82.9591 48.4913ZM82.8938 43.5266C82.6937 43.6951 82.276 43.8923 81.5625 44.0856L81.8239 45.0508C82.5649 44.8501 83.1623 44.6079 83.538 44.2915L82.8938 43.5266ZM81.5599 44.0863C80.8673 44.2778 80.0813 44.4487 79.2005 44.5979L79.3676 45.5839C80.2747 45.4301 81.0948 45.2525 81.8265 45.0501L81.5599 44.0863ZM79.2005 44.5979C78.3138 44.7482 77.4425 44.8759 76.5868 44.981L76.7087 45.9735C77.5802 45.8665 78.4665 45.7366 79.3676 45.5839L79.2005 44.5979ZM76.5857 44.9811C75.7339 45.0876 75.0228 45.1869 74.4541 45.2792L74.6141 46.2663C75.1666 46.1767 75.8646 46.0791 76.7097 45.9734L76.5857 44.9811ZM74.4721 45.2766C73.1084 45.447 71.8253 45.7343 70.6241 46.1399L70.944 47.0874C72.0762 46.7051 73.2931 46.4317 74.5961 46.2689L74.4721 45.2766ZM70.6222 46.1406C69.4111 46.5549 68.3833 47.1582 67.5513 47.9576L68.2441 48.6787C68.9576 47.9933 69.854 47.4603 70.9459 47.0867L70.6222 46.1406ZM67.555 47.9541C66.6899 48.7683 66.1614 49.8441 65.9497 51.1471L66.9367 51.3075C67.1189 50.1862 67.5601 49.3226 68.2404 48.6823L67.555 47.9541ZM65.9496 51.1472C65.656 52.9578 66.0837 54.431 67.3347 55.4354L67.9607 54.6556C67.0602 53.9326 66.6849 52.8604 66.9367 51.3073L65.9496 51.1472ZM67.3408 55.4401C68.5481 56.3792 70.1779 56.8182 72.1705 56.8182V55.8182C70.3146 55.8182 68.9291 55.4087 67.9547 54.6508L67.3408 55.4401ZM96.2216 61L95.7284 60.9178L95.6314 61.5H96.2216V61ZM102.04 26.0909V25.5909H101.616L101.547 26.0087L102.04 26.0909ZM108.608 26.0909L109.101 26.1738L109.199 25.5909H108.608V26.0909ZM107.676 31.6364L107.183 31.5535L107.085 32.1364H107.676V31.6364ZM108.04 31.6364V32.1364H108.349L108.487 31.86L108.04 31.6364ZM112.153 27.2045L112.41 27.6339L112.412 27.6323L112.153 27.2045ZM119.426 25.6136L119.399 26.1131L119.413 26.1135L119.426 25.6136ZM120.79 25.7273L121.283 25.81L121.365 25.3198L120.875 25.2347L120.79 25.7273ZM119.699 32.2273L119.558 32.707L120.099 32.866L120.192 32.31L119.699 32.2273ZM118.29 31.9773L118.213 32.4714L118.224 32.4729L118.29 31.9773ZM111.744 32.8409L111.964 33.2901L111.968 33.2881L111.744 32.8409ZM108.312 35.6364L108.706 35.9444L108.708 35.9419L108.312 35.6364ZM106.517 39.6818L106.025 39.5932L106.024 39.6008L106.517 39.6818ZM103.017 61V61.5H103.442L103.51 61.081L103.017 61ZM96.7148 61.0822L102.533 26.1731L101.547 26.0087L95.7284 60.9178L96.7148 61.0822ZM102.04 26.5909H108.608V25.5909H102.04V26.5909ZM108.115 26.0081L107.183 31.5535L108.169 31.7192L109.101 26.1738L108.115 26.0081ZM107.676 32.1364H108.04V31.1364H107.676V32.1364ZM108.487 31.86C109.384 30.0666 110.689 28.6607 112.41 27.6339L111.897 26.7752C110.012 27.8999 108.575 29.4486 107.593 31.4128L108.487 31.86ZM112.412 27.6323C114.14 26.5872 115.975 26.0682 117.926 26.0682V25.0682C115.787 25.0682 113.773 25.6401 111.895 26.7768L112.412 27.6323ZM117.926 26.0682C118.354 26.0682 118.845 26.083 119.399 26.1129L119.453 25.1144C118.886 25.0837 118.377 25.0682 117.926 25.0682V26.0682ZM119.413 26.1135C119.961 26.1283 120.389 26.1651 120.704 26.2199L120.875 25.2347C120.493 25.1682 120.012 25.1293 119.44 25.1138L119.413 26.1135ZM120.297 25.6445L119.206 32.1445L120.192 32.31L121.283 25.81L120.297 25.6445ZM119.84 31.7476C119.541 31.6596 119.036 31.5723 118.356 31.4817L118.224 32.4729C118.907 32.564 119.342 32.6434 119.558 32.707L119.84 31.7476ZM118.367 31.4832C117.658 31.373 116.928 31.3182 116.176 31.3182V32.3182C116.879 32.3182 117.558 32.3694 118.213 32.4713L118.367 31.4832ZM116.176 31.3182C114.511 31.3182 112.957 31.6756 111.521 32.3937L111.968 33.2881C113.259 32.6425 114.659 32.3182 116.176 32.3182V31.3182ZM111.525 32.3917C110.092 33.092 108.888 34.0728 107.917 35.3308L108.708 35.9419C109.585 34.806 110.669 33.9232 111.964 33.2901L111.525 32.3917ZM107.919 35.3283C106.943 36.5759 106.312 38.0002 106.025 39.5932L107.009 39.7704C107.268 38.3331 107.834 37.0604 108.706 35.9444L107.919 35.3283ZM106.024 39.6008L102.524 60.919L103.51 61.081L107.01 39.7628L106.024 39.6008ZM103.017 60.5H96.2216V61.5H103.017V60.5ZM120.909 61L120.416 60.9178L120.319 61.5H120.909V61ZM126.727 26.0909V25.5909H126.304L126.234 26.0087L126.727 26.0909ZM133.295 26.0909L133.789 26.1738L133.886 25.5909H133.295V26.0909ZM132.364 31.6364L131.871 31.5535L131.773 32.1364H132.364V31.6364ZM132.727 31.6364V32.1364H133.036L133.174 31.86L132.727 31.6364ZM136.841 27.2045L137.097 27.6339L137.1 27.6323L136.841 27.2045ZM144.114 25.6136L144.087 26.1131L144.1 26.1135L144.114 25.6136ZM145.477 25.7273L145.97 25.81L146.053 25.3198L145.563 25.2347L145.477 25.7273ZM144.386 32.2273L144.245 32.707L144.786 32.866L144.879 32.31L144.386 32.2273ZM142.977 31.9773L142.9 32.4714L142.911 32.4729L142.977 31.9773ZM136.432 32.8409L136.651 33.2901L136.655 33.2881L136.432 32.8409ZM133 35.6364L133.394 35.9444L133.396 35.9419L133 35.6364ZM131.205 39.6818L130.712 39.5932L130.711 39.6008L131.205 39.6818ZM127.705 61V61.5H128.129L128.198 61.081L127.705 61ZM121.402 61.0822L127.22 26.1731L126.234 26.0087L120.416 60.9178L121.402 61.0822ZM126.727 26.5909H133.295V25.5909H126.727V26.5909ZM132.802 26.0081L131.871 31.5535L132.857 31.7192L133.789 26.1738L132.802 26.0081ZM132.364 32.1364H132.727V31.1364H132.364V32.1364ZM133.174 31.86C134.071 30.0666 135.376 28.6607 137.097 27.6339L136.585 26.7752C134.7 27.8999 133.262 29.4486 132.28 31.4128L133.174 31.86ZM137.1 27.6323C138.827 26.5872 140.662 26.0682 142.614 26.0682V25.0682C140.474 25.0682 138.461 25.6401 136.582 26.7768L137.1 27.6323ZM142.614 26.0682C143.042 26.0682 143.533 26.083 144.087 26.1129L144.141 25.1144C143.573 25.0837 143.064 25.0682 142.614 25.0682V26.0682ZM144.1 26.1135C144.649 26.1283 145.077 26.1651 145.392 26.2199L145.563 25.2347C145.181 25.1682 144.7 25.1293 144.127 25.1138L144.1 26.1135ZM144.984 25.6445L143.893 32.1445L144.879 32.31L145.97 25.81L144.984 25.6445ZM144.527 31.7476C144.228 31.6596 143.723 31.5723 143.043 31.4817L142.911 32.4729C143.595 32.564 144.029 32.6434 144.245 32.707L144.527 31.7476ZM143.054 31.4832C142.346 31.373 141.615 31.3182 140.864 31.3182V32.3182C141.567 32.3182 142.245 32.3694 142.9 32.4713L143.054 31.4832ZM140.864 31.3182C139.199 31.3182 137.644 31.6756 136.208 32.3937L136.655 33.2881C137.947 32.6425 139.347 32.3182 140.864 32.3182V31.3182ZM136.212 32.3917C134.78 33.092 133.576 34.0728 132.604 35.3308L133.396 35.9419C134.273 34.806 135.356 33.9232 136.651 33.2901L136.212 32.3917ZM132.606 35.3283C131.63 36.5759 130.999 38.0002 130.712 39.5932L131.697 39.7704C131.955 38.3331 132.521 37.0604 133.394 35.9444L132.606 35.3283ZM130.711 39.6008L127.211 60.919L128.198 61.081L131.698 39.7628L130.711 39.6008ZM127.705 60.5H120.909V61.5H127.705V60.5ZM145.597 61L145.103 60.9178L145.006 61.5H145.597V61ZM151.415 26.0909V25.5909H150.991L150.922 26.0087L151.415 26.0909ZM158.21 26.0909L158.703 26.1731L158.8 25.5909H158.21V26.0909ZM152.392 61V61.5H152.816L152.885 61.0822L152.392 61ZM153.233 19.4545L152.879 19.8082L152.886 19.8147L153.233 19.4545ZM152.119 16.5909L152.619 16.6183L152.619 16.6179L152.119 16.5909ZM153.528 13.7273L153.862 14.0996L153.866 14.0964L153.528 13.7273ZM159.574 13.7273L159.22 14.0808L159.224 14.0842L159.574 13.7273ZM160.71 16.5909L161.21 16.6183L161.21 16.6112L160.71 16.5909ZM159.301 19.4545L159.638 19.8239L159.638 19.8236L159.301 19.4545ZM146.09 61.0822L151.908 26.1731L150.922 26.0087L145.103 60.9178L146.09 61.0822ZM151.415 26.5909H158.21V25.5909H151.415V26.5909ZM157.717 26.0087L151.899 60.9178L152.885 61.0822L158.703 26.1731L157.717 26.0087ZM152.392 60.5H145.597V61.5H152.392V60.5ZM156.233 20.1364C155.175 20.1364 154.301 19.7886 153.58 19.0944L152.886 19.8147C153.802 20.6962 154.928 21.1364 156.233 21.1364V20.1364ZM153.587 19.101C152.881 18.3956 152.566 17.5784 152.619 16.6183L151.62 16.5636C151.551 17.8155 151.979 18.9075 152.879 19.8081L153.587 19.101ZM152.619 16.6179C152.672 15.6365 153.077 14.8039 153.862 14.0996L153.195 13.355C152.223 14.2264 151.688 15.3029 151.62 16.5639L152.619 16.6179ZM153.866 14.0964C154.654 13.3757 155.558 13.0227 156.597 13.0227V12.0227C155.302 12.0227 154.16 12.4728 153.191 13.3582L153.866 14.0964ZM156.597 13.0227C157.652 13.0227 158.515 13.3757 159.22 14.0808L159.927 13.3737C159.026 12.4728 157.905 12.0227 156.597 12.0227V13.0227ZM159.224 14.0842C159.926 14.7734 160.25 15.591 160.211 16.5707L161.21 16.6112C161.261 15.3484 160.828 14.2569 159.924 13.3704L159.224 14.0842ZM160.211 16.5636C160.158 17.5285 159.754 18.3635 158.964 19.0854L159.638 19.8236C160.606 18.9396 161.141 17.8654 161.209 16.6183L160.211 16.5636ZM158.964 19.0852C158.194 19.788 157.292 20.1364 156.233 20.1364V21.1364C157.538 21.1364 158.681 20.6969 159.638 19.8239L158.964 19.0852ZM246.222 61L245.728 60.9178L245.631 61.5H246.222V61ZM252.04 26.0909V25.5909H251.616L251.547 26.0087L252.04 26.0909ZM258.608 26.0909L259.101 26.1738L259.199 25.5909H258.608V26.0909ZM257.676 31.6364L257.183 31.5535L257.085 32.1364H257.676V31.6364ZM258.04 31.6364V32.1364H258.349L258.487 31.86L258.04 31.6364ZM262.153 27.2045L262.41 27.6339L262.412 27.6323L262.153 27.2045ZM269.426 25.6136L269.399 26.1131L269.413 26.1135L269.426 25.6136ZM270.79 25.7273L271.283 25.81L271.365 25.3198L270.875 25.2347L270.79 25.7273ZM269.699 32.2273L269.558 32.707L270.099 32.866L270.192 32.31L269.699 32.2273ZM268.29 31.9773L268.213 32.4714L268.224 32.4729L268.29 31.9773ZM261.744 32.8409L261.964 33.2901L261.968 33.2881L261.744 32.8409ZM258.312 35.6364L258.706 35.9444L258.708 35.9419L258.312 35.6364ZM256.517 39.6818L256.025 39.5932L256.024 39.6008L256.517 39.6818ZM253.017 61V61.5H253.442L253.51 61.081L253.017 61ZM246.715 61.0822L252.533 26.1731L251.547 26.0087L245.728 60.9178L246.715 61.0822ZM252.04 26.5909H258.608V25.5909H252.04V26.5909ZM258.115 26.0081L257.183 31.5535L258.169 31.7192L259.101 26.1738L258.115 26.0081ZM257.676 32.1364H258.04V31.1364H257.676V32.1364ZM258.487 31.86C259.384 30.0666 260.689 28.6607 262.41 27.6339L261.897 26.7752C260.012 27.8999 258.575 29.4486 257.593 31.4128L258.487 31.86ZM262.412 27.6323C264.14 26.5872 265.975 26.0682 267.926 26.0682V25.0682C265.787 25.0682 263.773 25.6401 261.895 26.7768L262.412 27.6323ZM267.926 26.0682C268.354 26.0682 268.845 26.083 269.399 26.1129L269.453 25.1144C268.886 25.0837 268.377 25.0682 267.926 25.0682V26.0682ZM269.413 26.1135C269.961 26.1283 270.389 26.1651 270.704 26.2199L270.875 25.2347C270.493 25.1682 270.012 25.1293 269.44 25.1138L269.413 26.1135ZM270.297 25.6445L269.206 32.1445L270.192 32.31L271.283 25.81L270.297 25.6445ZM269.84 31.7476C269.541 31.6596 269.036 31.5723 268.356 31.4817L268.224 32.4729C268.907 32.564 269.342 32.6434 269.558 32.707L269.84 31.7476ZM268.367 31.4832C267.658 31.373 266.928 31.3182 266.176 31.3182V32.3182C266.879 32.3182 267.558 32.3694 268.213 32.4713L268.367 31.4832ZM266.176 31.3182C264.511 31.3182 262.957 31.6756 261.521 32.3937L261.968 33.2881C263.259 32.6425 264.659 32.3182 266.176 32.3182V31.3182ZM261.525 32.3917C260.092 33.092 258.888 34.0728 257.917 35.3308L258.708 35.9419C259.585 34.806 260.669 33.9232 261.964 33.2901L261.525 32.3917ZM257.919 35.3283C256.943 36.5759 256.312 38.0002 256.025 39.5932L257.009 39.7704C257.268 38.3331 257.834 37.0604 258.706 35.9444L257.919 35.3283ZM256.024 39.6008L252.524 60.919L253.51 61.081L257.01 39.7628L256.024 39.6008ZM253.017 60.5H246.222V61.5H253.017V60.5Z" fill="#47126B"/>
</g>
<path d="M185.352 44.5C185.352 61.3447 239.696 75 214.188 75C188.679 75 168 61.3447 168 44.5C168 27.6553 188.679 14 214.188 14C239.696 14 185.352 27.6553 185.352 44.5Z" fill="#A4161A"/>
<path d="M218.648 30.5C218.648 47.3447 164.304 61 189.812 61C215.321 61 236 47.3447 236 30.5C236 13.6553 215.321 0 189.812 0C164.304 0 218.648 13.6553 218.648 30.5Z" fill="#A4161A"/>
<defs>
<filter id="filter0_d_0_1" x="0.577614" y="12.0227" width="274.788" height="58.25" filterUnits="userSpaceOnUse" color-interpolation-filters="sRGB">
<feFlood flood-opacity="0" result="BackgroundImageFix"/>
<feColorMatrix in="SourceAlpha" type="matrix" values="0 0 0 0 0 0 0 0 0 0 0 0 0 0 0 0 0 0 127 0" result="hardAlpha"/>
<feOffset dy="4"/>
<feGaussianBlur stdDeviation="2"/>
<feComposite in2="hardAlpha" operator="out"/>
<feColorMatrix type="matrix" values="0 0 0 0 0 0 0 0 0 0 0 0 0 0 0 0 0 0 0.25 0"/>
<feBlend mode="normal" in2="BackgroundImageFix" result="effect1_dropShadow_0_1"/>
<feBlend mode="normal" in="SourceGraphic" in2="effect1_dropShadow_0_1" result="shape"/>
</filter>
</defs>
</svg>
